D:\school\WTK\thesis\model\3dpredictsim\Results\debug_batch\Pog_s1_tmt_bCst_d05_k500_ig24_pas_GRF.mot
nRows=22
nColumns=19

name D:\school\WTK\thesis\model\3dpredictsim\Results\debug_batch\Pog_s1_tmt_bCst_d05_k500_ig24_pas_GRF.mot
datacolumns 19
datarows 22
range 0.0000000000 0.2343970156
endheader
time 	ground_force_vx	ground_force_vy	ground_force_vz	ground_force_px	ground_force_py	ground_force_pz	1_ground_force_vx	1_ground_force_vy	1_ground_force_vz	1_ground_force_px	1_ground_force_py	1_ground_force_pz	ground_torque_x	ground_torque_y	ground_torque_z	1_ground_torque_x	1_ground_torque_y	1_ground_torque_z
        0.0000000000	      -73.2760069015	       60.9388191550	       29.2635933472	        0.1706180620	        0.0000000000	        0.0376804223	      100.5111982653	      495.9072418532	       -4.1626798944	       -0.3189345546	        0.0000000000	       -0.0325306280	        0.0000000000	        0.0000000000	        0.0000000000	        0.0000000000	        0.0000000000	        0.0000000000	
        0.0111617626	     -118.0075665720	      137.4879805861	       75.2717829511	        0.1780055372	        0.0000000000	        0.0352336191	       81.5791736919	      415.7751667860	       -9.4401246821	       -0.3150927836	        0.0000000000	       -0.0313565126	        0.0000000000	        0.0000000000	        0.0000000000	        0.0000000000	        0.0000000000	        0.0000000000	
        0.0223235253	      -48.8511084934	      281.4156145168	       33.7877246483	        0.1838441104	        0.0000000000	        0.0326830865	       58.5933882165	      319.9536211997	       -9.9405670039	       -0.3088770809	        0.0000000000	       -0.0289247049	        0.0000000000	        0.0000000000	        0.0000000000	        0.0000000000	        0.0000000000	        0.0000000000	
        0.0334852879	      -46.6783882585	      448.9511209168	        4.2999096245	        0.1880089564	        0.0000000000	        0.0327859321	       30.8646753844	      216.2934232959	       -5.7834232619	       -0.2975383640	        0.0000000000	       -0.0236004122	        0.0000000000	        0.0000000000	        0.0000000000	        0.0000000000	        0.0000000000	        0.0000000000	
        0.0446470506	      -79.3433767402	      655.5014762096	       -7.2553028096	        0.1967200597	        0.0000000000	        0.0353212704	        9.7080462455	      143.5084640421	       -8.8015656435	       -0.2827568545	        0.0000000000	       -0.0158240756	        0.0000000000	        0.0000000000	        0.0000000000	        0.0000000000	        0.0000000000	        0.0000000000	
        0.0558088132	     -105.9206104727	      799.9729881090	      -12.6007292750	        0.2030284452	        0.0000000000	        0.0371333684	        1.4025671218	      113.7124855763	       -9.9466603808	       -0.2831944609	        0.0000000000	       -0.0162382585	        0.0000000000	        0.0000000000	        0.0000000000	        0.0000000000	        0.0000000000	        0.0000000000	
        0.0669705759	     -114.8572446102	      857.5174153485	      -13.6533643601	        0.2072292150	        0.0000000000	        0.0382073940	       -1.4246145108	       74.6660606720	       -9.1900217548	       -0.2826289291	        0.0000000000	       -0.0163041962	        0.0000000000	        0.0000000000	        0.0000000000	        0.0000000000	        0.0000000000	        0.0000000000	
        0.0781323385	     -111.3498011792	      858.0273869386	      -13.4391189611	        0.2105170739	        0.0000000000	        0.0388220879	       -7.5638198133	       30.8416477592	       -5.4101060799	       -0.2829324713	        0.0000000000	       -0.0162709168	        0.0000000000	        0.0000000000	        0.0000000000	        0.0000000000	        0.0000000000	        0.0000000000	
        0.0892941012	     -102.5442360013	      837.5370750502	      -13.7158141612	        0.2138657199	        0.0000000000	        0.0391149617	        0.0895512567	       -0.0889105097	        0.0007285220	        0.0000000000	        0.0000000000	        0.0000000000	        0.0000000000	        0.0000000000	        0.0000000000	        0.0000000000	        0.0000000000	        0.0000000000	
        0.1004558638	      -90.0405072138	      804.3393539063	      -14.3677367578	        0.2173419597	        0.0000000000	        0.0392219783	        0.0001112362	       -0.0000907255	       -0.0000072844	        0.0000000000	        0.0000000000	        0.0000000000	        0.0000000000	        0.0000000000	        0.0000000000	        0.0000000000	        0.0000000000	        0.0000000000	
        0.1116176265	      -78.7052640389	      767.2573421482	      -14.8861726371	        0.2214020093	        0.0000000000	        0.0392216933	        0.0000588401	       -0.0000418924	       -0.0000047752	        0.0000000000	        0.0000000000	        0.0000000000	        0.0000000000	        0.0000000000	        0.0000000000	        0.0000000000	        0.0000000000	        0.0000000000	
        0.1227793891	      -68.7617672511	      733.0186716147	      -14.9980966243	        0.2259325897	        0.0000000000	        0.0391080990	        0.0005909931	       -0.0003774240	       -0.0000527215	        0.0000000000	        0.0000000000	        0.0000000000	        0.0000000000	        0.0000000000	        0.0000000000	        0.0000000000	        0.0000000000	        0.0000000000	
        0.1339411518	      -58.9762830868	      700.0022894421	      -15.4940615714	        0.2304210750	        0.0000000000	        0.0390032346	        0.0057341920	       -0.0033594956	       -0.0005375317	        0.0000000000	        0.0000000000	        0.0000000000	        0.0000000000	        0.0000000000	        0.0000000000	        0.0000000000	        0.0000000000	        0.0000000000	
        0.1451029144	      -49.5783109933	      669.6309152327	      -16.0714752158	        0.2348329803	        0.0000000000	        0.0389557641	       -0.0286432954	        0.0156305450	        0.0027784985	        0.0000000000	        0.0000000000	        0.0000000000	        0.0000000000	        0.0000000000	        0.0000000000	        0.0000000000	        0.0000000000	        0.0000000000	
        0.1562646771	      -41.4930980023	      643.6787099838	      -16.7253742567	        0.2393200114	        0.0000000000	        0.0389535748	       -0.0190947568	        0.0098129085	        0.0019065686	        0.0000000000	        0.0000000000	        0.0000000000	        0.0000000000	        0.0000000000	        0.0000000000	        0.0000000000	        0.0000000000	        0.0000000000	
        0.1674264397	      -34.6916147141	      622.3510521320	      -17.4275252554	        0.2438444838	        0.0000000000	        0.0389767017	       -0.0127822099	        0.0062402466	        0.0013100958	        0.0000000000	        0.0000000000	        0.0000000000	        0.0000000000	        0.0000000000	        0.0000000000	        0.0000000000	        0.0000000000	        0.0000000000	
        0.1785882024	      -28.7749896944	      605.5512993837	      -17.9474867162	        0.2486087803	        0.0000000000	        0.0390097382	       -0.0109448893	        0.0051133499	        0.0011431910	        0.0000000000	        0.0000000000	        0.0000000000	        0.0000000000	        0.0000000000	        0.0000000000	        0.0000000000	        0.0000000000	        0.0000000000	
        0.1897499650	      -24.2997690520	      593.5357353276	      -18.2155338766	        0.2537190303	        0.0000000000	        0.0390235137	       -0.0125312408	        0.0056326191	        0.0013284323	        0.0000000000	        0.0000000000	        0.0000000000	        0.0000000000	        0.0000000000	        0.0000000000	        0.0000000000	        0.0000000000	        0.0000000000	
        0.2009117277	      -20.7283783453	      585.8329397920	      -18.3303695186	        0.2592390247	        0.0000000000	        0.0389937536	       -0.0186176555	        0.0080884515	        0.0019900446	        0.0000000000	        0.0000000000	        0.0000000000	        0.0000000000	        0.0000000000	        0.0000000000	        0.0000000000	        0.0000000000	        0.0000000000	
        0.2120734903	      -18.6449425077	      581.5660247322	      -18.2682028176	        0.2650400775	        0.0000000000	        0.0389115978	       -0.0336828047	        0.0142030145	        0.0036051423	        0.0000000000	        0.0000000000	        0.0000000000	        0.0000000000	        0.0000000000	        0.0000000000	        0.0000000000	        0.0000000000	        0.0000000000	
        0.2232352530	      -17.3240611174	      580.0440457271	      -17.9314163754	        0.2709890164	        0.0000000000	        0.0387826333	       -0.0684863674	        0.0281379847	        0.0072956340	        0.0000000000	        0.0000000000	        0.0000000000	        0.0000000000	        0.0000000000	        0.0000000000	        0.0000000000	        0.0000000000	        0.0000000000	
        0.2343970156	      -16.2140017418	      579.9193564194	      -17.5512927596	        0.2769562858	        0.0000000000	        0.0386142937	       -0.1442630233	        0.0579578345	        0.0152073943	        0.0000000000	        0.0000000000	        0.0000000000	        0.0000000000	        0.0000000000	        0.0000000000	        0.0000000000	        0.0000000000	        0.0000000000	
